HIERARCHY
ROOT Hips
{
	OFFSET 0.000000 0.000000 0.000000
	CHANNELS 6 Xposition Yposition Zposition Xrotation Yrotation Zrotation
	JOINT LeftUpLeg_virtual
	{
		OFFSET 0.000000 0.000000 0.000000
		CHANNELS 3 Xrotation Yrotation Zrotation
		JOINT LeftUpLeg
		{
			OFFSET 15.427100 -6.655098 0.678600
			CHANNELS 3 Xrotation Yrotation Zrotation
			JOINT LeftLeg
			{
				OFFSET 4.081073 -39.591068 13.024000
				CHANNELS 3 Xrotation Yrotation Zrotation
				JOINT LeftFoot
				{
					OFFSET -4.081074 -37.707932 -15.979700
					CHANNELS 3 Xrotation Yrotation Zrotation
					JOINT LeftToeBase
					{
						OFFSET 5.346399 -15.068900 20.645000
						CHANNELS 3 Xrotation Yrotation Zrotation
						JOINT LeftToe_End
						{
							OFFSET 2.754700 0.931300 11.300900
							CHANNELS 3 Xrotation Yrotation Zrotation
							End Site
							{
								OFFSET 0 0 0
							}
						}
					}
				}
			}
		}
	}
	JOINT RightUpLeg_virtual
	{
		OFFSET 0.000000 0.000000 0.000000
		CHANNELS 3 Xrotation Yrotation Zrotation
		JOINT RightUpLeg
		{
			OFFSET -15.569500 -6.655098 0.678600
			CHANNELS 3 Xrotation Yrotation Zrotation
			JOINT RightLeg
			{
				OFFSET -4.081825 -39.591045 13.023800
				CHANNELS 3 Xrotation Yrotation Zrotation
				JOINT RightFoot
				{
					OFFSET 4.081824 -37.707954 -15.979600
					CHANNELS 3 Xrotation Yrotation Zrotation
					JOINT RightToeBase
					{
						OFFSET -5.346400 -15.068900 20.645000
						CHANNELS 3 Xrotation Yrotation Zrotation
						JOINT RightToe_End
						{
							OFFSET -2.754700 0.931300 11.300900
							CHANNELS 3 Xrotation Yrotation Zrotation
							End Site
							{
								OFFSET 0 0 0
							}
						}
					}
				}
			}
		}
	}
	JOINT Spine_virtual
	{
		OFFSET 0.000000 0.000000 0.000000
		CHANNELS 3 Xrotation Yrotation Zrotation
		JOINT Spine
		{
			OFFSET -0.279200 12.230698 -2.892100
			CHANNELS 3 Xrotation Yrotation Zrotation
			JOINT Spine1
			{
				OFFSET -0.232667 10.192268 -1.242267
				CHANNELS 3 Xrotation Yrotation Zrotation
				JOINT Spine1_split
				{
					OFFSET -0.232667 10.192268 -1.242267
					CHANNELS 3 Xrotation Yrotation Zrotation
					JOINT Spine2
					{
						OFFSET -0.232667 10.192268 -1.242267
						CHANNELS 3 Xrotation Yrotation Zrotation
						JOINT Neck_virtual
						{
							OFFSET 0.000000 0.000000 0.000000
							CHANNELS 3 Xrotation Yrotation Zrotation
							JOINT Neck
							{
								OFFSET -0.418800 17.814194 8.416900
								CHANNELS 3 Xrotation Yrotation Zrotation
								JOINT Head
								{
									OFFSET 0.000000 7.031097 3.806800
									CHANNELS 3 Xrotation Yrotation Zrotation
									JOINT HeadTop_End
									{
										OFFSET 0.000000 24.646606 12.978600
										CHANNELS 3 Xrotation Yrotation Zrotation
										End Site
										{
											OFFSET 0 0 0
										}
									}
								}
							}
						}
						JOINT LeftShoulder_virtual
						{
							OFFSET 0.000000 0.000000 0.000000
							CHANNELS 3 Xrotation Yrotation Zrotation
							JOINT LeftShoulder
							{
								OFFSET 8.476499 7.247704 -3.868750
								CHANNELS 3 Xrotation Yrotation Zrotation
								JOINT LeftShoulder_split
								{
									OFFSET 8.476499 7.247704 -3.868750
									CHANNELS 3 Xrotation Yrotation Zrotation
									JOINT LeftArm
									{
										OFFSET 9.308998 -2.777710 0.208600
										CHANNELS 3 Xrotation Yrotation Zrotation
										JOINT LeftForeArm
										{
											OFFSET 29.972298 0.000000 0.000000
											CHANNELS 3 Xrotation Yrotation Zrotation
											JOINT LeftHand
											{
												OFFSET 26.026505 0.000000 0.000000
												CHANNELS 3 Xrotation Yrotation Zrotation
												End Site
												{
													OFFSET 0 0 0
												}
											}
										}
									}
								}
							}
						}
						JOINT RightShoulder_virtual
						{
							OFFSET 0.000000 0.000000 0.000000
							CHANNELS 3 Xrotation Yrotation Zrotation
							JOINT RightShoulder
							{
								OFFSET -7.570500 7.247704 -3.868750
								CHANNELS 3 Xrotation Yrotation Zrotation
								JOINT RightShoulder_split
								{
									OFFSET -7.570500 7.247704 -3.868750
									CHANNELS 3 Xrotation Yrotation Zrotation
									JOINT RightArm
									{
										OFFSET -9.308998 -2.777710 0.208500
										CHANNELS 3 Xrotation Yrotation Zrotation
										JOINT RightForeArm
										{
											OFFSET -29.972300 0.000000 0.000000
											CHANNELS 3 Xrotation Yrotation Zrotation
											JOINT RightHand
											{
												OFFSET -26.026505 0.000000 0.000000
												CHANNELS 3 Xrotation Yrotation Zrotation
												End Site
												{
													OFFSET 0 0 0
												}
											}
										}
									}
								}
							}
						}
					}
				}
			}
		}
	}
}
MOTION
Frames: 7
Frame Time: 0.03333333
-13.824599 17.733959 -72.612846 0.000000 0.000000 0.000000 -89.783595 19.033727 -0.387308 -51.525680 10.180612 37.933170 62.875061 7.003296 0.568367 31.894494 5.666139 -19.054218 -3.427458 0.272986 -1.396043 0.000000 0.000000 0.000000 -91.114232 22.711928 2.069034 -47.492791 -1.220583 -42.173956 94.937020 7.415793 1.733253 23.149140 0.398033 21.664576 2.551212 2.867350 0.489040 0.000000 0.000000 0.000000 -89.038537 18.802867 -1.321718 57.484020 10.484249 -2.203593 18.322222 4.071570 0.624211 0.306409 -2.604422 0.843621 0.000000 0.000000 0.000000 21.847610 4.108303 0.254367 12.330108 -2.007230 -3.148223 30.163697 0.693440 0.461112 0.000000 0.000000 0.000000 20.160857 3.435932 -0.099143 1.380037 -4.652291 -10.334292 -2.371234 -2.034023 -5.725483 -35.460116 -18.573028 -35.624761 -7.625785 -56.581355 -2.174448 0.000000 0.000000 0.000000 19.534373 3.287810 0.554675 0.018386 11.831815 16.797882 -0.725274 0.203559 -3.585955 -26.314210 -7.478121 35.325643 1.450146 45.717588 -2.261090 0.000000 0.000000 0.000000 
-14.522274 17.571732 -75.119034 0.000000 0.000000 0.000000 -97.409276 18.136463 -1.235562 -44.906995 7.431863 38.439912 62.738477 6.188002 1.715325 30.278365 5.189889 -16.471030 -3.758684 0.596608 -1.950551 0.000000 0.000000 0.000000 -98.532739 23.099088 3.194556 -35.492258 0.240734 -35.757925 92.006480 7.065455 -2.811810 19.986271 -0.836498 25.546702 1.002843 2.459673 0.556848 0.000000 0.000000 0.000000 -97.445148 18.518490 -1.811805 55.442964 11.023169 -0.604588 19.171364 4.167375 0.731901 0.572816 -2.744372 1.028529 0.000000 0.000000 0.000000 21.912133 4.207411 0.133675 12.393040 -2.725155 -3.007307 31.944450 0.609323 -1.247443 0.000000 0.000000 0.000000 20.557869 3.514595 0.148380 1.125665 -4.181111 -8.908589 -1.672234 -1.850440 -5.492773 -30.255727 -19.065377 -32.859279 -9.379726 -59.030074 -3.649363 0.000000 0.000000 0.000000 20.005032 3.482805 0.705409 -0.118042 12.726051 16.260018 -1.416627 2.220657 -3.518112 -15.617745 -6.552265 35.479448 1.417383 41.090790 -1.487069 0.000000 0.000000 0.000000 
-15.073070 17.489792 -77.371353 0.000000 0.000000 0.000000 -104.296435 17.372554 -1.943244 -38.930596 4.919498 39.718028 62.503389 4.568335 2.565305 29.837483 3.297297 -14.555277 -3.291254 0.905013 -2.160886 0.000000 0.000000 0.000000 -105.147231 23.318780 4.386306 -24.991194 2.915980 -30.568232 90.115166 6.267110 -6.594145 16.352499 -3.280510 25.991696 1.800242 2.046071 0.681536 0.000000 0.000000 0.000000 -105.085725 18.605831 -1.969942 53.111524 10.134998 1.017258 19.049854 3.818348 0.770364 1.827759 -2.448334 1.646397 0.000000 0.000000 0.000000 21.183914 3.856947 0.029113 12.053016 -3.310948 -2.424989 32.078441 0.524490 -3.104978 0.000000 0.000000 0.000000 19.899261 3.087667 0.357042 0.701777 -4.268146 -7.822663 -0.949765 -1.624450 -4.656735 -24.554889 -19.376707 -31.248925 -10.178507 -59.344570 -4.489505 0.000000 0.000000 0.000000 19.519180 3.192628 0.833709 0.140544 13.462603 15.290212 -2.415033 3.746389 -3.326227 -4.434369 -3.893764 35.220523 1.532875 34.112335 -0.952738 0.000000 0.000000 0.000000 
-15.677100 17.684929 -79.782471 0.000000 0.000000 0.000000 -110.047209 17.015241 -2.104511 -33.427035 3.051258 41.668071 61.691443 2.646986 3.309691 29.809906 0.494609 -13.773354 -2.594540 1.141378 -1.912019 0.000000 0.000000 0.000000 -110.979168 23.322741 5.504666 -17.094403 5.605759 -26.911280 89.387218 5.201470 -9.070472 13.472453 -5.835268 23.387915 4.699418 1.757631 0.722881 0.000000 0.000000 0.000000 -111.523663 18.995540 -1.510734 50.432730 7.736544 2.253940 17.774504 2.921867 0.675751 2.384951 -1.983560 2.147687 0.000000 0.000000 0.000000 19.543704 2.987322 -0.103885 11.388539 -3.729742 -1.399985 30.980123 0.985180 -5.303764 0.000000 0.000000 0.000000 18.157170 2.131123 0.414336 0.236627 -4.399196 -7.184306 -0.268811 -1.434960 -3.349026 -17.649547 -19.597491 -30.554817 -9.488376 -57.339684 -4.210269 0.000000 0.000000 0.000000 17.981262 2.279150 0.849092 0.760523 13.469183 14.010057 -2.870933 4.186771 -3.121664 6.232417 -0.140488 35.115427 1.923521 29.794395 -0.840843 0.000000 0.000000 0.000000 
-16.403368 18.231720 -82.286453 0.000000 0.000000 0.000000 -114.523687 17.069094 -1.673594 -28.563773 1.998564 44.065222 60.147390 0.982737 3.873112 29.336708 -2.531017 -14.047075 -2.239307 1.268758 -1.218814 0.000000 0.000000 0.000000 -115.906207 23.296609 6.736803 -12.129707 7.826875 -24.597022 89.927398 4.648333 -10.531808 12.663913 -6.792376 20.390490 7.017149 1.626207 0.515221 0.000000 0.000000 0.000000 -116.476404 19.430196 -0.496822 47.446575 4.026106 2.797247 15.500225 1.512839 0.403816 2.404461 -1.385050 2.197858 0.000000 0.000000 0.000000 17.076291 1.593746 -0.288793 9.984293 -3.904006 -0.302682 28.929154 2.127633 -7.847530 0.000000 0.000000 0.000000 15.618669 0.701169 0.299143 -0.145788 -4.327797 -6.633522 -0.191473 -0.959193 -2.472197 -8.969221 -19.691259 -29.962688 -8.045054 -53.291970 -3.369624 0.000000 0.000000 0.000000 15.499053 0.744979 0.694224 1.570976 12.372629 12.619198 -2.553314 3.441827 -3.022460 16.012417 3.744448 35.424059 2.484009 31.948466 -1.155492 0.000000 0.000000 0.000000 
-17.305098 18.976738 -84.823654 0.000000 0.000000 0.000000 -117.988185 17.273639 -0.871327 -24.605535 1.471267 46.625450 58.393603 0.016967 4.201664 28.093654 -5.019397 -15.169804 -2.375029 1.306649 -0.360889 0.000000 0.000000 0.000000 -119.965484 23.083381 7.825585 -9.800638 9.866395 -22.894934 91.564956 4.702350 -11.524842 13.837027 -5.955609 18.512447 7.223086 1.559097 0.116604 0.000000 0.000000 0.000000 -120.166810 19.481520 0.712342 44.490674 -0.491719 2.660368 12.638828 -0.248733 -0.053442 1.557132 -1.048569 1.728351 0.000000 0.000000 0.000000 14.086010 -0.126739 -0.525152 7.744748 -3.888083 0.647951 26.354835 4.112046 -10.617843 0.000000 0.000000 0.000000 12.747734 -1.054221 0.004066 -0.370195 -3.614065 -5.987424 -0.574740 -0.561896 -2.169322 1.324053 -19.400118 -28.522194 -6.628542 -48.539774 -2.545351 0.000000 0.000000 0.000000 12.561561 -1.189073 0.327812 2.321472 10.189491 10.905076 -1.326907 1.924851 -2.817365 24.377995 6.728525 35.763601 3.256447 40.777790 -2.003477 0.000000 0.000000 0.000000 
-18.398548 19.448418 -87.600922 0.000000 0.000000 0.000000 -120.695248 17.480754 0.363578 -21.932067 1.215771 49.198413 56.919013 0.068458 4.259458 25.987222 -6.204905 -16.452252 -2.331948 1.292512 0.112853 0.000000 0.000000 0.000000 -123.065993 22.596028 8.710407 -9.535485 12.061404 -21.330348 93.677991 5.093124 -12.238257 15.318904 -4.299719 17.168937 6.841072 1.483025 -0.224204 0.000000 0.000000 0.000000 -122.591363 19.120199 1.816633 41.782685 -5.144149 1.964179 9.767223 -2.140649 -0.570766 0.161567 -0.708207 1.091775 0.000000 0.000000 0.000000 11.030182 -1.936234 -0.823871 4.638489 -3.795361 1.094539 23.610535 6.949454 -13.483802 0.000000 0.000000 0.000000 10.104087 -2.798928 -0.382815 -0.388677 -2.146802 -5.111656 -1.352221 -0.405640 -2.337106 12.430556 -18.401800 -25.714527 -5.558104 -44.478772 -1.866143 0.000000 0.000000 0.000000 9.618818 -3.198651 -0.193965 2.810195 7.301039 9.001222 0.760647 0.542596 -2.613409 31.001901 8.396365 36.087349 4.478795 53.198277 -3.489650 0.000000 0.000000 0.000000 
